<?xml version="1.0" encoding="utf-8"?>
<!-- Generator: Adobe Illustrator 24.3.0, SVG Export Plug-In . SVG Version: 6.00 Build 0)  -->
<svg version="1.0" id="Layer_1" xmlns="http://www.w3.org/2000/svg" xmlns:xlink="http://www.w3.org/1999/xlink" x="0px" y="0px"
	 viewBox="0 0 500 500" style="enable-background:new 0 0 500 500;" xml:space="preserve">
<style type="text/css">
	.st0{fill:#F7F0ED;}
	.st1{fill:#F94033;}
	.st2{fill:none;}
</style>
<path class="st0" d="M426.7,301.8c1.2,1.9,1.1,3,0.5,4.4C425.8,305.1,426.4,303.8,426.7,301.8z"/>
<path class="st0" d="M434.5,195.9c1.2-1.3,2.8-1.8,4.3-2.5C438.6,196.4,436,195.3,434.5,195.9z"/>
<path class="st0" d="M438.9,193.3c0-0.7,0-1.4-0.1-2.1c0.7,0.1,1.3,0.3,1.2,1.2C440,193.1,439.4,193.2,438.9,193.3z"/>
<path class="st0" d="M438.5,184.8c-0.1,0.2-0.1,0.5-0.3,0.5c-0.1,0.1-0.4-0.1-0.6-0.2c0.1-0.2,0.1-0.5,0.3-0.5
	C438.1,184.5,438.3,184.7,438.5,184.8z"/>
<path class="st0" d="M424.1,310.8c-0.4-0.1-0.7-0.3-0.7-0.8C423.8,310,424,310.3,424.1,310.8z"/>
<g>
	<g>
		<circle class="st1" cx="274.8" cy="262.3" r="115.9"/>
		<g>
			<path class="st0" d="M293.3,213.3c0,0.4,0,0.8,0,1.2c-0.1,3.3-0.2,6.5-0.3,9.8c-11.4,0-22.7,0-34.1,0.1c-2.2,0-2.7-0.8-2.7-2.8
				c0.1-10.5,0-21.1,0.1-31.6c0-1.1-0.5-2.8,1.7-2.2c0.6,0.6,1.2,1.3,1.8,1.9c0.3,0.9,1,1.5,1.9,1.8c0.1,0.1,0.3,0.3,0.4,0.4
				c0.1,0.4,0.4,0.7,0.8,0.7c0,0-0.1,0-0.1,0c0.1,0.8,0.6,1.1,1.3,1.3c2.5,3.4,2.5,3.4,5.4,0.6c5.2-5.2,5.3-5.3,10.5,0.2
				c1.8,1.9,3.1,2.4,5,0c1.6-2.1,4.1-3.6,5.7-5.9c0.9-0.2,1.3-1.3,2.4-1.1c0,0,0,0,0,0c0.1,5.7,0.2,11.4,0.3,17.2c0,0.4,0,0.8,0,1.2
				c0,0.8,0,1.7,0,2.5c0,0.8,0,1.6,0,2.4C293.4,211.6,293.4,212.5,293.3,213.3z M262,200c-0.9,2.4-0.2,4.7-0.3,6.9
				c-0.1,1.4,0.8,1.6,2,1.6c7.4,0,14.7,0,22.1,0c1.1,0,2.1-0.2,2-1.6c-0.1-2.3,0.5-4.6-0.4-6.9c-5.2,3.9-5.2,3.9-9.7-0.5
				c-3.1-3-3.1-3-6,0C267.3,204,267.3,204,262,200z M274.6,219.2C274.6,219.2,274.6,219.3,274.6,219.2c3.8,0,7.6,0,11.3,0
				c2.2,0,2.1-1.5,2.1-2.9c0-1.4-0.1-2.5-2.1-2.5c-7.4,0.1-14.7,0.1-22.1,0c-2.2,0-2.2,1.2-2.3,2.7c-0.1,1.7,0.4,2.8,2.3,2.7
				C267.4,219.2,271,219.2,274.6,219.2z"/>
			<path class="st0" d="M220.6,219.1c0,0.1,0,0.2,0.1,0.3c4.1,4.4,4.1,4.4,8.4,0.2c1.4-1.4,2.9-2.9,4.3-4.3c0.4-0.4,0.8-1.1,1.5-0.9
				c0.9,0.3,0.6,1.2,0.6,1.8c0,7.5,0,14.9,0,22.4c0,3.4-0.1,6.7,0,10.1c0,1.7-0.3,2.6-2.3,2.6c-10.7-0.1-21.5-0.1-32.2,0
				c-1.9,0-2.5-0.7-2.4-2.6c0.1-2.3-0.1-4.7-0.2-7c0-0.4,0-0.9,0-1.3c0.3-1.6,0.3-3.2,0-4.8c0-0.4,0-0.9,0-1.3
				c0.1-6.5,0.1-13,0.2-19.6c3.4,0.5,4.5,3.9,7,5.5c0.8,0.5,1.4,1.4,2.1,2.2c1,1.1,2,1.2,3.1,0c1.5-1.7,3.1-3.4,4.7-5.1
				c0.1-0.2,0.2-0.3,0.3-0.5C218.4,215.6,219,218.4,220.6,219.1z M229.9,226.7c-2.3,0.7-3.1,4.2-5.4,3.5c-1.9-0.6-3.3-2.9-4.9-4.5
				c-0.2-0.2-0.5-0.4-0.7-0.6c-1.4-2-2.5-1.6-3.9,0.2c-1.2,1.6-2.9,2.9-4.3,4.4c-1.1,1.2-1.9,1.1-3.1,0c-1-1-1.8-2.4-3.8-3.1
				c0,2.4,0.1,4.5,0,6.7c-0.1,2,0.8,2.4,2.6,2.4c5.4-0.1,10.8,0,16.2,0c8.3,0,8.3,0,7.4-8.3C230.1,227,230,226.9,229.9,226.7z
				 M217,240.4C217,240.4,217,240.4,217,240.4c-3.6,0-7.2,0.1-10.7,0c-2-0.1-2.3,0.9-2.4,2.6c0,1.8,0.2,2.9,2.4,2.9
				c7.3-0.1,14.5-0.1,21.8,0c2.1,0,2.3-1.1,2.3-2.7c0-1.6-0.2-2.8-2.3-2.7C224.3,240.5,220.7,240.4,217,240.4z"/>
			<path class="st0" d="M338.5,221.6c0.7,1.7,1.7,2.1,3.1,0.7c0.7-0.7,1.3-1.4,2-2.1c1.8-1.1,3.2-2.6,4.3-4.3c0,0,0,0,0,0
				c1,0,1.4-1.6,2.9-1.1c0,11.5,0,23,0,34.5c0,1.5-0.7,1.7-1.9,1.7c-10.9,0-21.9,0-32.8,0c-1.6,0-2.1-0.6-2.1-2.2
				c0-10.7,0-21.5,0-32.2c0-0.7-0.3-1.6,0.4-2c1-0.5,1.4,0.5,2,1c2.5,2.2,4.5,5,7.3,6.9c0,0,0,0,0,0c0.4,0.9,0.9,0.9,1.5,0.1l0.1,0
				c2.2-1.2,3.5-3.3,5.3-4.9c1.3-1.2,2.3-1.4,3.6,0C335.6,219.1,337.1,220.3,338.5,221.6z M345.3,226.7c-1.3,0.1-1.9,1-2.4,1.6
				c-1.8,2.4-3.3,2.7-5.2,0.1c-1.1-1.5-2.8-2.7-4.1-4.1c-1-1.2-1.6-0.9-2.4,0c-1.7,1.8-3.5,3.5-5.2,5.2c-0.9,1-1.7,1.3-2.8,0.2
				c-1.1-1-2.1-3.2-3.4-2.5c-1.4,0.7-0.4,3-0.6,4.5c0,0.3,0,0.6,0,0.9c-0.3,2.1,0.6,2.9,2.8,2.9c5.3-0.1,10.6,0,16,0
				C346.3,235.4,346.3,235.4,345.3,226.7z M332.2,245.8C332.2,245.8,332.2,245.8,332.2,245.8c3.7,0,7.4-0.1,11.1,0
				c1.9,0,2.5-0.7,2.4-2.6c-0.1-1.6,0-3-2.4-2.9c-7.2,0.1-14.3,0.1-21.5,0c-2,0-2.7,0.7-2.6,2.7c0,1.9,0.5,2.8,2.6,2.8
				C325.2,245.7,328.7,245.8,332.2,245.8z"/>
			<path class="st0" d="M197.1,303.2c2.4-2.9,5-5.5,8.2-7.4c1-0.1,1.9-0.4,2.6-1.2c0.2,0.1,0.3,0,0.4-0.1c1.5,0,2.9-0.6,4.2-1.2
				c0.6-0.1,1.3-0.1,1.9-0.2c6.6-0.2,12.7,1.1,18,5.4c2.9,2.3,4.5,5.4,6.5,8.3c1.1,3.9,1.8,7.8,1.8,11.9c0,2.2-0.5,3.5-2.9,3.5
				c-14.6-0.3-29.1-0.3-43.7-0.1c0,0,0.1,0,0.1,0c-0.2-0.2-0.4-0.4-0.7-0.7c0,0,0,0,0,0c-0.1-4-0.3-8.1,0.7-12.1
				c0.6-0.6,0.6-1.3,0.6-2C195.7,306,196.4,304.6,197.1,303.2z M228.8,303c-0.2-0.2-0.4-0.4-0.7-0.7l0.1,0.1
				c-0.1-0.4-0.4-0.5-0.7-0.5c-8.3-6.5-20.3-3.3-24.7,3.6c-0.5,0.2-0.7,0.6-0.7,1.1c-2.4,2.2-3.1,5.1-3.5,8.1
				c-0.2,1.5,0.5,2,1.9,1.9c11.4-0.1,22.9-0.1,34.3-0.2c1.3-3.1,0-5.5-1.8-7.9l0,0c-0.3-2-1.4-3.4-3-4.4l0,0
				c-0.2-0.2-0.4-0.4-0.7-0.6l0,0C229.3,303.2,229.1,303,228.8,303L228.8,303z"/>
			<path class="st0" d="M291.9,273.1c0.8,1,1.6,2,2.5,2.9c0,1.2,0.9,2,1.4,3c2.6,5.3,3.3,10.8,2.1,16.5c0,0-0.1,0-0.1,0
				c-15.4,0-30.9,0-46.3,0c0,0-0.1,0-0.1,0c-1-4-0.1-8,0-12c0,0,0,0,0,0c1.3-2.7,2.6-5.3,3.9-8c1-0.6,1.6-1.5,2.2-2.4
				c1.3-0.9,2.8-1.8,3.8-3.1c0,0,0,0,0,0c1.4-0.2,2.6-1,3.7-1.9c5.4-1.4,10.7-2.5,16.3-0.8c3.1,0.9,5.7,2.6,8.5,3.9
				C290.4,271.9,291,272.7,291.9,273.1z M274.5,290.1C274.5,290.1,274.5,290.1,274.5,290.1c5.4,0,10.8-0.1,16.3,0
				c2,0,2.4-0.7,2.2-2.6c-1.3-9-9.3-15.9-18.6-15.9c-8.6,0-16.6,7-17.9,15.5c-0.3,2.1,0.1,3.1,2.5,3
				C264.1,290,269.3,290.1,274.5,290.1z"/>
			<path class="st0" d="M352,302.7c0,0.2,0,0.3,0.2,0.3c0,0.9,0.5,1.4,1.2,1.8c0,0,0,0,0,0c1.3,4.4,2.7,8.7,2.6,13.4
				c-0.1,2.7-0.8,3.5-3.4,3.5c-11.1-0.1-22.2,0-33.4,0c-2.6,0-5.3-0.1-7.9,0c-1.7,0-2.2-0.7-2.3-2.3c-0.4-5.3,0.8-10.3,2.8-15.1
				c0,0,0,0,0,0c1.1-0.4,1.2-1.6,1.7-2.5c0.4-0.1,0.6-0.3,0.7-0.7c4.1-4.1,9-6.8,14.8-7.9c0.6,0,1.2,0,1.8-0.1c1.4,0,2.9,0,4.3,0
				c4.4,0.6,8.3,2.4,12.1,4.5c0,0,0,0,0,0c0.6,0.9,1.2,1.7,2.3,1.8c0.2,1.1,1,1.7,1.8,2.3C351.5,302.1,351.7,302.4,352,302.7z
				 M332.1,316.6C332.1,316.6,332.1,316.6,332.1,316.6c5.2,0.1,10.4-0.1,15.7,0.1c2.8,0.1,3.2-0.9,2.8-3.4
				c-2-11.8-16.1-18.8-26.6-13c-5.4,3-8.8,7.4-9.9,13.6c-0.3,1.9,0.3,2.7,2.4,2.6C321.7,316.5,326.9,316.6,332.1,316.6z"/>
			<path class="st0" d="M318,260.1c2.2-1.6,4.1-3.7,6.6-4.8c12.9-5.6,26.8,3.7,26.2,17.7c-0.3,6.5-3.5,11.6-9.2,15
				c-0.8,0.5-1.6,0.9-2.4,1.4c-1.9,0.2-3.8,0.5-5.5,1.3c-0.9,0-1.9,0-2.8-0.1c-0.9-0.3-1.7-0.7-2.6-0.9c-9.6-1.7-14.5-11.1-14.3-18
				C314.1,267.4,316.2,263.8,318,260.1z M345.5,272.2c0-7.5-5.8-13.4-13-13.4c-7.3,0-13.1,5.9-13.1,13.3c0,7.4,5.7,12.9,13.4,12.9
				C339.8,285.1,345.5,279.3,345.5,272.2z"/>
			<path class="st0" d="M208.4,288.3c-6.3-3.9-9.9-9.4-9.7-16.9c0.1-8.5,7.3-16.5,15.2-17.5c10.1-1.2,18.6,4.2,21.1,13.5
				c2.3,8.4-2.4,18.1-10.6,21.5c-2,0.8-4.1,1.2-6.2,1.7c-1.1,0-2.3,0-3.4-0.1c-1-0.8-2.1-1.1-3.3-1c-0.4-0.1-0.7-0.2-1.1-0.2
				C209.8,288.8,209.2,288.3,208.4,288.3z M217.1,258.8c-7-0.1-13,5.8-13.1,13c-0.1,7.3,5.6,13.2,12.7,13.3
				c7.4,0.1,13.3-5.4,13.4-12.6C230.2,264.9,224.6,258.9,217.1,258.8z"/>
			<path class="st0" d="M257.5,238.5c0.1-0.1,0.2-0.3,0.1-0.5c2.3-3.2,4.4-6.6,7.9-8.7c4.4-1.6,8.7-3.2,13.7-1.7
				c6.6,1.9,11.1,5.8,13.1,12.4c0.2,0.6,0.6,1.1,0.8,1.6c0.6,4.9-0.8,9.5-2.6,14c0,0,0-0.1,0-0.1c-2,1.9-4,3.8-6,5.7c0,0,0,0,0,0
				c-0.9,0-1.5,0.4-2,1.1c-0.2,0-0.3,0-0.4,0.2c-1.4,0.1-2.6,0.5-3.8,1.2c-8.2,0.9-14.7-2-19.5-8.5
				C256.3,249.7,255.6,244.2,257.5,238.5z M274.5,258.5c7.3,0.2,13.2-5.5,13.3-13c0.1-7.1-5.6-13-12.8-13.2
				c-7.1-0.2-13.1,5.6-13.3,12.7C261.6,252.5,267.1,258.3,274.5,258.5z"/>
		</g>
	</g>
	<path id="SVGID_x5F_1_x5F_" class="st2" d="M107.9,253.7c0,92.2,74.7,166.9,166.9,166.9s166.9-74.7,166.9-166.9"/>
	<text>	<textPath  xlink:href="#SVGID_x5F_1_x5F_" startOffset="0%">
<tspan  class="st1" style="font-family:'Montserrat-ExtraBold'; font-size:18px;">WHERE CREATIVITY MEETS TECHNOLOGY</tspan>	</textPath>
</text>
	<g>
		<circle class="st1" cx="117.8" cy="267.7" r="8.9"/>
		<circle class="st1" cx="431.8" cy="267.7" r="8.9"/>
	</g>
	<g>
		<g>
			<path class="st1" d="M126.2,215.1c-1.4,1-3,1.6-4.8,1.7c-1.8,0.1-3.8-0.4-5.8-1.3l-19.8-9c-2.1-0.9-3.7-2.1-4.8-3.5
				c-1.1-1.4-1.8-3-1.9-4.7c-0.1-1.7,0.2-3.6,1.1-5.5c0.9-2,2-3.5,3.4-4.5s3-1.6,4.8-1.7c1.8-0.1,3.8,0.4,5.8,1.3l3.1,1.4l-3,6.7
				l-3.1-1.4c-0.7-0.3-1.3-0.5-1.8-0.5s-1.1,0.1-1.5,0.4s-0.8,0.7-1,1.3c-0.2,0.5-0.3,1.1-0.3,1.6c0.1,0.5,0.3,1,0.7,1.4
				c0.4,0.4,0.9,0.8,1.6,1.1l19.8,9c0.7,0.3,1.3,0.5,1.8,0.5c0.6,0,1.1-0.1,1.5-0.4c0.4-0.3,0.8-0.7,1-1.2c0.3-0.6,0.4-1.1,0.3-1.6
				c-0.1-0.5-0.3-1-0.7-1.4c-0.4-0.4-0.9-0.8-1.6-1.1l-3.1-1.4l3-6.7l3.1,1.4c2.1,0.9,3.7,2.1,4.9,3.5c1.2,1.4,1.8,3,1.9,4.7
				c0.1,1.7-0.2,3.6-1.1,5.6C128.8,212.6,127.6,214.1,126.2,215.1z"/>
			<path class="st1" d="M154.3,171.7c-1.7,0.6-3.4,0.7-5.1,0.2c-1.7-0.5-3.2-1.4-4.7-2.9L128,152.3c-1.5-1.5-2.5-3.1-2.9-4.8
				s-0.4-3.4,0.2-5.1c0.6-1.7,1.7-3.4,3.3-5c1.6-1.6,3.3-2.7,5-3.3c1.7-0.6,3.4-0.7,5.1-0.2c1.7,0.5,3.2,1.4,4.7,2.9l16.5,16.6
				c1.5,1.5,2.5,3.1,2.9,4.7c0.4,1.7,0.4,3.4-0.2,5.1c-0.6,1.7-1.7,3.4-3.3,5C157.6,170,156,171.1,154.3,171.7z M155.2,161.6
				c0.2-0.6,0.2-1.2,0-1.8c-0.2-0.6-0.6-1.1-1.1-1.7l-15.2-15.3c-0.5-0.5-1.1-0.9-1.7-1.1c-0.6-0.2-1.2-0.2-1.8,0
				c-0.6,0.2-1.1,0.5-1.7,1c-0.5,0.5-0.9,1.1-1,1.7c-0.2,0.6-0.2,1.2,0,1.7c0.2,0.6,0.6,1.1,1.1,1.7l15.2,15.3
				c0.5,0.6,1.1,0.9,1.7,1.1c0.6,0.2,1.2,0.2,1.7,0c0.6-0.2,1.1-0.5,1.7-1C154.7,162.7,155,162.1,155.2,161.6z"/>
			<path class="st1" d="M174.5,103.8l6.6-3.1l18.3,38.4l-6.6,3.1L174.5,103.8z M194.2,133.8l4.9-2.3c0.9-0.4,1.4-1,1.7-1.8
				c0.2-0.8,0.1-1.6-0.4-2.6l-9.4-19.7c-0.5-1-1.1-1.6-1.8-1.9c-0.7-0.3-1.5-0.3-2.4,0.2l-4.9,2.3l-3-6.3l5.6-2.7
				c1.8-0.9,3.6-1.3,5.2-1.2c1.6,0.1,3.1,0.6,4.4,1.5s2.4,2.4,3.2,4.1l10.1,21.2c0.9,1.8,1.3,3.5,1.2,5.1c-0.1,1.6-0.6,3.1-1.6,4.4
				c-1,1.3-2.4,2.4-4.2,3.3l-5.6,2.6L194.2,133.8z"/>
			<path class="st1" d="M236.5,82.2l7.2-1l5.9,42.2l-7.2,1L236.5,82.2z M239.7,81.7l15.6-2.2l1,7l-15.6,2.2L239.7,81.7z M242.2,99.5
				l14.1-2l1,7l-14.1,2L242.2,99.5z M244.6,116.9l15.6-2.2l1,7l-15.6,2.2L244.6,116.9z"/>
			<path class="st1" d="M296.7,122c-1.4-1.1-2.3-2.5-2.9-4.2c-0.5-1.7-0.6-3.7-0.3-6l3.4-21.5c0.4-2.3,1.1-4.1,2.1-5.6
				c1.1-1.5,2.4-2.5,4-3.1c1.6-0.6,3.5-0.7,5.6-0.4c2.1,0.3,3.9,1,5.3,2.1s2.3,2.5,2.9,4.2c0.5,1.7,0.6,3.7,0.3,6l-0.5,3.4l-7.3-1.1
				l0.5-3.4c0.1-0.7,0.1-1.3,0-1.9c-0.1-0.6-0.4-1-0.8-1.4c-0.4-0.3-0.9-0.6-1.5-0.7c-0.6-0.1-1.1,0-1.6,0.2c-0.5,0.2-0.9,0.5-1.2,1
				s-0.5,1.1-0.6,1.8l-3.4,21.5c-0.1,0.7-0.1,1.3,0,1.9c0.1,0.5,0.4,1,0.8,1.3c0.4,0.3,0.9,0.6,1.4,0.6c0.6,0.1,1.2,0,1.6-0.2
				s0.8-0.5,1.1-1s0.5-1.1,0.6-1.8l0.5-3.4l7.3,1.1l-0.5,3.4c-0.4,2.3-1.1,4.1-2.1,5.6c-1,1.5-2.4,2.5-4,3.1
				c-1.6,0.6-3.5,0.7-5.7,0.4S298,123.1,296.7,122z"/>
			<path class="st1" d="M361.5,97l6.3,3.3l-19.5,37.9l-6.3-3.3L361.5,97z M356.3,114.2l6.8,3.5c0.6,0.3,1.1,0.4,1.6,0.4
				c0.5,0,1-0.1,1.4-0.4c0.4-0.3,0.7-0.7,1-1.2l2.2-4.2c0.3-0.6,0.4-1.1,0.5-1.6c0-0.5-0.1-1-0.4-1.4c-0.3-0.4-0.7-0.8-1.3-1.1
				l-6.8-3.5l3.2-6.2l6.4,3.3c2,1.1,3.6,2.3,4.7,3.7c1.1,1.4,1.7,3,1.8,4.7c0.1,1.7-0.3,3.4-1.2,5.2l-2.3,4.4
				c-1,1.9-2.2,3.3-3.6,4.2c-1.4,0.9-3.1,1.4-4.9,1.3c-1.8-0.1-3.7-0.6-5.8-1.7l-6.4-3.3L356.3,114.2z M359,121.9l6.5,1.8l-3.4,21.5
				l-6.9-3.6L359,121.9z"/>
			<path class="st1" d="M417.6,134.6l5,5.2l-30.7,29.6l-5-5.2L417.6,134.6z M394.2,161.6l10.9,11.3l-5.1,4.9l-10.9-11.3L394.2,161.6
				z M406.9,149.3l9.9,10.3l-5.1,4.9l-9.9-10.3L406.9,149.3z M419.8,136.9l10.9,11.3l-5.1,4.9l-10.9-11.3L419.8,136.9z"/>
			<path class="st1" d="M461,197l2.1,5.2l-25.6,15.4l28.2-9.2l2.8,6.8l-41.5,11l-2.6-6.5l23.9-14.4l-27.3,6.1l-2.6-6.5l37.4-21.1
				l2.8,6.8l-26.6,13.1L461,197z"/>
		</g>
	</g>
</g>
</svg>
